<svg xmlns="http://www.w3.org/2000/svg" viewBox="0 0 45 45"><g stroke="#000" stroke-width="1.5" stroke-linecap="round" stroke-linejoin="round"><path d="M9 36c3.39-.47 9.24-.8 5.58-4.46.09-2.09.43-4.49 1.14-5.23 2-2.12 3-5 3-8 0-3 0-6-3-6-3 0-3 3-3 6 0 3 1 5.88 3 8 .71.74 1.05 3.14 1.14 5.23C13.24 35.2 19.09 35.53 22.5 36" transform="translate(0, -3)" /><path d="M15 32c2.5 2.5 12.5 2.5 15 0 .5-1.5 0-2 0-2 0-2.5-2.5-4-2.5-4 5.5-1.5 6-11.5-5-15.5-11 4-10.5 14-5 15.5 0 0-2.5 1.5-2.5 4 0 0-.5.5 0 2z" transform="translate(0, 3)" /><path d="M25 8a2.5 2.5 0 1 1-5 0 2.5 2.5 0 1 1 5 0z" fill="#fff" /></g><path d="M17.5 26h10M15 30h15m-7.5-14.5v5M20 18h5" stroke="#fff" stroke-width="1.5" stroke-linecap="round" /></svg>