<svg xmlns="http://www.w3.org/2000/svg" viewBox="0 0 45 45"><path d="M22 10c10.5 1 16.5 8 16 29H15c0-9 10-6.5 8-21" stroke="#000" stroke-width="1.5" stroke-linejoin="round" /><path d="M24 18c.38 2.32-4.68 1.97-5 0 .38-2.32 4.68-1.97 5 0z" fill="#fff" /><path d="M9 26c0 2-1.5 2-2.5 4 1 1.5 1 1 .5 3.5-1.5 1-1.5 2.5-1.5 2.5-1.5 1.5.5 2.5.5 2.5 6.5 1 16.5 1 23 0 0 0 1.5-1 0-2.5 0 0 .5-1.5-1-2.5-.5-2.5-.5-2 .5-3.5 3-2.5 5-2.5 4.5 1.5 1.5-.5 2.5-3 2.5-5.5 1.5-2 1.5-3 .5-3.5-1.5-3-1.5-5.5-1-6.5-.5-1-1-1.5-1.5-1L9 26z" stroke="#000" stroke-width="1.5" stroke-linejoin="round" /><path d="M12.5 27c1 2.5 3 2.5 5 0" fill="none" stroke="#fff" stroke-width="1.5" stroke-linecap="round" /></svg>